<svg xmlns="http://www.w3.org/2000/svg" viewBox="0 -0.5 40 40" shape-rendering="crispEdges">
<metadata>Made with Pixels to Svg https://codepen.io/shshaw/pen/XbxvNj</metadata>
<path stroke="#0d0d0d" d="M5 0h30M5 1h30M2 2h3M35 2h2M2 3h3M35 3h2M2 4h3M35 4h2M0 5h2M37 5h3M0 6h2M37 6h3M0 7h2M37 7h3M0 8h2M37 8h3M0 9h2M37 9h3M0 10h2M30 10h2M37 10h3M0 11h2M30 11h2M37 11h3M0 12h2M15 12h7M30 12h2M37 12h3M0 13h2M15 13h7M30 13h2M37 13h3M0 14h2M15 14h7M30 14h2M37 14h3M0 15h2M7 15h15M30 15h2M37 15h3M0 16h2M7 16h15M30 16h2M37 16h3M0 17h2M12 17h3M27 17h3M37 17h3M0 18h2M12 18h3M27 18h3M37 18h3M0 19h2M12 19h3M27 19h3M37 19h3M0 20h2M12 20h3M22 20h5M37 20h3M0 21h2M12 21h3M22 21h5M37 21h3M0 22h2M15 22h7M37 22h3M0 23h2M15 23h7M37 23h3M0 24h2M15 24h7M37 24h3M0 25h2M12 25h3M22 25h3M37 25h3M0 26h2M12 26h3M22 26h3M37 26h3M0 27h2M12 27h3M22 27h3M37 27h3M0 28h2M12 28h3M22 28h3M37 28h3M0 29h2M12 29h3M22 29h3M37 29h3M0 30h2M15 30h7M37 30h3M0 31h2M15 31h7M37 31h3M0 32h2M37 32h3M0 33h2M37 33h3M0 34h2M37 34h3M2 35h3M35 35h2M2 36h3M35 36h2M5 37h30M5 38h30M5 39h30" />
<path stroke="#f2f2f2" d="M5 2h7M5 3h7M5 4h7M2 5h5M2 6h5M2 7h3M10 7h17M2 8h3M10 8h17M2 9h3M10 9h17M2 10h3M7 10h23M2 11h3M7 11h23M7 12h8M22 12h8M7 13h8M22 13h8M7 14h8M22 14h8M22 15h8M22 16h8M15 17h12M15 18h12M15 19h12M15 20h7M15 21h7M15 25h7M15 26h7M15 27h7M15 28h7M15 29h7" />
<path stroke="#d53453" d="M12 2h20M12 3h20M12 4h20M30 5h5M30 6h5M32 7h3M32 8h3M32 9h3M32 10h3M32 11h3M2 12h3M32 12h3M2 13h3M32 13h3M2 14h3M32 14h3M2 15h3M32 15h3M2 16h3M32 16h3M2 17h3M32 17h3M2 18h3M32 18h3M2 19h3M32 19h3M2 20h3M32 20h3M2 21h3M32 21h3M2 22h3M32 22h3M2 23h3M32 23h3M2 24h3M32 24h3M2 25h3M32 25h3M2 26h3M32 26h3M2 27h3M32 27h3M2 28h3M32 28h3M2 29h3M32 29h3M2 30h5M30 30h5M2 31h5M30 31h5M5 32h27M5 33h27M5 34h27" />
<path stroke="#181818" d="M32 2h3M32 3h3M32 4h3M35 5h2M35 6h2M35 7h2M35 8h2M35 9h2M35 10h2M35 11h2M35 12h2M35 13h2M35 14h2M35 15h2M35 16h2M35 17h2M35 18h2M35 19h2M35 20h2M35 21h2M35 22h2M35 23h2M35 24h2M35 25h2M35 26h2M35 27h2M35 28h2M35 29h2M35 30h2M35 31h2M2 32h3M32 32h5M2 33h3M32 33h5M2 34h3M32 34h5M5 35h30M5 36h30" />
<path stroke="#eb4c6a" d="M7 5h3M27 5h3M7 6h3M27 6h3M5 7h2M30 7h2M5 8h2M30 8h2M5 9h2M30 9h2M5 15h2M5 16h2M5 17h7M30 17h2M5 18h7M30 18h2M5 19h7M30 19h2M5 20h7M27 20h5M5 21h7M27 21h5M5 22h10M22 22h10M5 23h10M22 23h10M5 24h10M22 24h10M5 25h7M25 25h7M5 26h7M25 26h7M5 27h7M25 27h7M5 28h7M25 28h7M5 29h7M25 29h7M7 30h8M22 30h8M7 31h8M22 31h8" />
<path stroke="#000000" d="M10 5h17M10 6h17M7 7h3M27 7h3M7 8h3M27 8h3M7 9h3M27 9h3M5 10h2M5 11h2M5 12h2M5 13h2M5 14h2" />
</svg>