<svg xmlns="http://www.w3.org/2000/svg" xmlns:xlink="http://www.w3.org/1999/xlink" width="339" height="382" viewBox="0 0 339 382">
  <defs>
    <style>
      .cls-1 {
        fill: #d53453;
        fill-rule: evenodd;
        filter: url(#filter);
      }
    </style>
    <filter id="filter" x="8" y="89" width="349" height="382" filterUnits="userSpaceOnUse">
      <feOffset result="offset" in="SourceAlpha"/>
      <feGaussianBlur result="blur" stdDeviation="4.583"/>
      <feFlood result="flood" flood-color="#d53453" flood-opacity="0.38"/>
      <feComposite result="composite" operator="in" in2="blur"/>
      <feBlend result="blend" in="SourceGraphic"/>
    </filter>
  </defs>
  <path id="Elipse_3" data-name="Elipse 3" class="cls-1" d="M66.5,111A11.5,11.5,0,1,1,55,122.5,11.5,11.5,0,0,1,66.5,111ZM305,134a9,9,0,1,1-9,9A9,9,0,0,1,305,134ZM262.5,281A11.5,11.5,0,1,1,251,292.5,11.5,11.5,0,0,1,262.5,281ZM324,379a10,10,0,1,1-10,10A10,10,0,0,1,324,379ZM51.5,385A14.5,14.5,0,1,1,37,399.5,14.5,14.5,0,0,1,51.5,385Zm-15-117a6.5,6.5,0,1,1-6.5,6.5A6.5,6.5,0,0,1,36.5,268ZM265,432a8,8,0,1,1-8,8A8,8,0,0,1,265,432Z" transform="translate(-8 -89)"/>
</svg>
