<svg xmlns="http://www.w3.org/2000/svg" xmlns:xlink="http://www.w3.org/1999/xlink" width="347" height="382" viewBox="0 0 347 382">
  <defs>
    <style>
      .cls-1 {
        fill: #d53453;
        fill-rule: evenodd;
        filter: url(#filter);
      }
    </style>
    <filter id="filter" x="-8" y="89" width="374" height="382" filterUnits="userSpaceOnUse">
      <feOffset result="offset" in="SourceAlpha"/>
      <feGaussianBlur result="blur" stdDeviation="4.583"/>
      <feFlood result="flood" flood-color="#d53453" flood-opacity="0.38"/>
      <feComposite result="composite" operator="in" in2="blur"/>
      <feBlend result="blend" in="SourceGraphic"/>
    </filter>
  </defs>
  <path id="Elipse_3" data-name="Elipse 3" class="cls-1" d="M84.5,111A11.5,11.5,0,1,1,73,122.5,11.5,11.5,0,0,1,84.5,111ZM334,134a9,9,0,1,1-9,9A9,9,0,0,1,334,134ZM262.5,281A11.5,11.5,0,1,1,251,292.5,11.5,11.5,0,0,1,262.5,281ZM332,399a10,10,0,1,1-10,10A10,10,0,0,1,332,399ZM28.5,370A14.5,14.5,0,1,1,14,384.5,14.5,14.5,0,0,1,28.5,370Zm8-102a6.5,6.5,0,1,1-6.5,6.5A6.5,6.5,0,0,1,36.5,268ZM265,432a8,8,0,1,1-8,8A8,8,0,0,1,265,432Z" transform="translate(0 -89)"/>
</svg>
