<svg xmlns="http://www.w3.org/2000/svg" viewBox="0 0 193.71 220"><defs><style>.cls-1{fill:#0398d8;}.cls-2{fill:#006eba;}</style></defs><g id="Camada_2" data-name="Camada 2"><g id="Camada_5" data-name="Camada 5"><path class="cls-1" d="M96,16.57h78.86l-15,169.57L96,201.71V177.14l51.43-14.57,6.43-74H107.14L156,64.43l2.14-25.29H96Zm0,98v37.29l28.71-7.29,1.72-30Z"/><path class="cls-2" d="M96,0h97.71L177.43,196.86,96,220V201.71l63.86-15.57,15-169.57H96Zm0,39.14V0H0L16.71,197.29,96,220V177.14L45.86,163l-2.57-38.14,25.28.43,1.29,19.28L96,151.86V114.57l-54.43-.43L40.29,88.57,86.14,65.29l-48.43-.43L36.43,39.14Z"/></g></g></svg>