<svg xmlns="http://www.w3.org/2000/svg" viewBox="0 0 195.43 220"><defs><style>.cls-1{fill:#f2602c;}.cls-2{fill:#e14016;}</style></defs><g id="Camada_2" data-name="Camada 2"><g id="Camada_3" data-name="Camada 3"><path class="cls-1" d="M96.57,39.43V17.14L176,16.57,160.57,186.29l-64,15.42v-24l52-14.85,5.72-73.72H96.57V65.71h60l1.14-26.28Zm0,75.43v36L124,144l2.29-29.14Z"/><path class="cls-2" d="M96.57,65.71V89.14H67.43L64.57,65.71Zm0,136V220l81.14-22.86L195.43,0H96.57V17.14L176,16.57,160.57,186.29Zm0-162.28V0H0L17.71,196.57,96.57,220V177.71L48.29,162.86l-4.86-37.15H68.57l1.72,18.86,26.28,6.29v-36l-53.71-.57L36,39.43Z"/></g></g></svg>