<svg xmlns="http://www.w3.org/2000/svg" viewBox="0 0 195.43 220"><defs><style>.cls-1{fill:#fcd914;}.cls-2{fill:#e8c728;}</style></defs><g id="Camada_2" data-name="Camada 2"><g id="Camada_4" data-name="Camada 4"><path class="cls-1" d="M106.29,40l-.58,82.29,33.72-4-3.14,28-30.58,8.57v22.28l49.15-12.57,1,23.12-58.72,14V16.57h49.15V40.29Zm40-23.43V40.29l19.42.85L164,62.29H125.14l.57,37.14,36-4.57-6.85,69.71,1,23.12,5.85-1.4L175.43,16.57Z"/><path class="cls-2" d="M97.14,0h98.29L178.86,197.71,97.14,220V201.71l64.57-15.42L175.43,16.57H97.14ZM88.6,40l.66,137.14h7.88V0H64.29V38.86Zm-20-40H0L16,195.43,97.14,220V177.14H90.29L32,160V138.29L67.43,148Z"/></g></g></svg>