<svg xmlns="http://www.w3.org/2000/svg" viewBox="0 -0.5 16 31" shape-rendering="crispEdges">
<metadata>Made with Pixels to Svg https://codepen.io/shshaw/pen/XbxvNj</metadata>
<path stroke="#0d0d0d" d="M11 0h3M10 1h1M14 1h1M9 2h1M13 2h1M15 2h1M13 3h1M15 3h1M15 4h1M13 5h2M2 17h3M1 18h1M4 18h2M0 19h1M6 19h1M0 20h1M6 20h1M1 21h1M5 21h1" />
<path stroke="#f8f8f8" d="M11 1h3M10 2h3M14 2h1M12 3h1M14 3h1M13 4h2M10 5h1M7 9h2M10 9h2M7 10h1M11 10h1M7 11h1M11 11h1M2 18h2M1 19h5M1 20h5M2 21h3M8 21h2M12 21h2M8 22h2M12 22h2" />
<path stroke="#500000" d="M7 3h5M5 4h2M12 4h1M4 5h1M12 5h1M3 6h1M13 6h2M2 7h1M1 8h1M1 9h1M14 9h1M14 10h1M14 11h1M1 16h3M0 17h1M7 17h2M0 18h1" />
<path stroke="#d53453" d="M7 4h2M10 4h2M5 5h3M11 5h1M4 6h3M3 7h2M2 8h2M2 9h2M4 16h1M12 16h1M1 17h1M5 17h2M12 17h1M6 18h1M9 18h2M7 19h5M8 20h2M6 21h2M10 21h2M6 22h2M10 22h2M6 23h6M7 24h3M12 24h1M8 25h2M11 25h2M1 26h2M11 26h2M1 27h3M11 27h1M1 28h3M1 29h1" />
<path stroke="#f2f2f2" d="M9 4h1M8 5h2M13 24h1M2 29h1" />
<path stroke="#000000" d="M7 6h6M5 7h10M4 8h11M4 9h2M12 9h2M3 10h2M8 10h1M10 10h1M3 11h2M8 11h1M10 11h1M3 12h3M4 13h1M7 13h2M1 14h3M6 14h8M2 15h2M8 15h5M13 23h2M11 24h1M14 24h2M1 25h1M13 25h3M0 26h1M13 26h3M0 27h1M12 27h4M0 28h1M4 28h1M11 28h4M0 29h1M3 29h1M12 29h2M1 30h2" />
<path stroke="#f87068" d="M6 9h1M9 9h1M1 10h1M5 10h2M0 11h1M5 11h1M0 12h1M2 12h1M8 12h2M1 13h3M10 13h3M4 14h2M4 15h2M5 16h6" />
<path stroke="#f8d0c0" d="M2 10h1M9 10h1M2 11h1M6 11h1M9 11h1M12 11h1M6 12h2M10 12h3M5 13h2M6 15h2" />
<path stroke="#f84070" d="M12 10h2" />
<path stroke="#885818" d="M1 11h1M13 11h1M1 12h1M13 12h1M9 13h1M13 13h1M11 16h1M9 17h2" />
<path stroke="#181818" d="M11 17h1M7 18h2M12 18h1M13 19h1M13 20h1M2 22h3M2 23h2M12 23h1M2 24h2M10 24h1M2 25h3M10 25h1M3 26h4M8 26h3M4 27h4M10 27h1" />
<path stroke="#595959" d="M11 18h1M12 19h1M12 20h1M5 22h1M4 23h2M4 24h3M5 25h3M7 26h1" />
<path stroke="#eb4c6a" d="M7 20h1M10 20h2" />
</svg>